/* XPM */
static char *Free_Converter_com_bitcoin64_95254547[] = {
/* columns rows colors chars-per-pixel */
"64 64 109 2 ",
"   c #395478",
".  c #395579",
"X  c #395679",
"o  c #39567A",
"O  c #39577A",
"+  c #3A597C",
"@  c #3A5C7F",
"#  c #3A5D80",
"$  c #3A5E81",
"%  c #3B6284",
"&  c #3B6486",
"*  c #3B6586",
"=  c #3B6788",
"-  c #3B6789",
";  c #3B6889",
":  c #3B698A",
">  c #3C6A8B",
",  c #3C6C8C",
"<  c #3C6C8D",
"1  c #3C6D8D",
"2  c #3C6F8F",
"3  c #3C7191",
"4  c #3C7292",
"5  c #3D7494",
"6  c #3D7696",
"7  c #3D7796",
"8  c #3D7897",
"9  c #3D7998",
"0  c #3E7B9A",
"q  c #3E7E9C",
"w  c #3E809E",
"e  c #3E819E",
"r  c #3E819F",
"t  c #3F84A1",
"y  c #3F86A2",
"u  c #3F86A3",
"i  c #3F88A5",
"p  c #3F89A5",
"a  c #3F8AA6",
"s  c #3F8BA7",
"d  c #408EA9",
"f  c #408EAA",
"g  c #408FAA",
"h  c #408FAB",
"j  c #4090AC",
"k  c #4091AC",
"l  c #4094AF",
"z  c #4195AF",
"x  c #4195B0",
"c  c #4196B0",
"v  c #4197B1",
"b  c #4199B3",
"n  c #419AB4",
"m  c #419CB6",
"M  c #429EB7",
"N  c #429FB8",
"B  c #42A0B9",
"V  c #42A1BA",
"C  c #43A1BA",
"Z  c #44A2BA",
"A  c #46A3BB",
"S  c #49A5BB",
"D  c #4BA5BC",
"F  c #4FA7BC",
"G  c #51A8BD",
"H  c #52A9BD",
"J  c #53A9BD",
"K  c #57ABBE",
"L  c #5AADBF",
"P  c #5DAEBF",
"I  c #60B0C0",
"U  c #66B2C1",
"Y  c #6AB4C2",
"T  c #6BB5C2",
"R  c #7ABCC5",
"E  c #7CBDC5",
"W  c #7EBEC6",
"Q  c #8DC5C9",
"!  c #95C9CA",
"~  c #9DCDCC",
"^  c #A2D0CD",
"/  c #A6D2CE",
"(  c #ABD4CE",
")  c #ADD5CF",
"_  c #AED6CF",
"`  c #B6D9D1",
"'  c #B6DAD1",
"]  c #B9DBD1",
"[  c #C4E0D4",
"{  c #C5E1D4",
"}  c #C9E3D4",
"|  c #D1E7D6",
" . c #D8EAD7",
".. c #D9EBD8",
"X. c #DAEBD8",
"o. c #E1EFD9",
"O. c #E2EFD9",
"+. c #E4F0DA",
"@. c #E6F1DA",
"#. c #E7F1DA",
"$. c #ECF4DB",
"%. c #EFF5DC",
"&. c #F0F6DC",
"*. c #F5F8DD",
"=. c #F6F9DD",
"-. c #F8FADE",
";. c #FEFCDF",
":. c #FFFDDF",
">. c None",
/* pixels */
">.>.>.>.>.>.>.>.>.>.>.>.>.>.>.>.>.>.>.>.>.>.>.>.>.>.>.>.>.>.>.>.>.>.>.>.>.>.>.>.>.>.>.>.>.>.V V V V V >.>.>.>.>.>.>.>.>.>.>.>.>.",
">.>.>.>.>.>.>.>.>.>.>.>.>.>.>.>.>.>.>.>.>.>.>.>.>.>.>.>.>.>.>.>.>.>.>.>.>.>.>.>.>.>.>.>.V V V V V V V V V >.>.>.>.>.>.>.>.>.>.>.",
">.>.>.>.>.>.>.>.>.>.>.>.>.>.>.>.>.>.>.>.>.>.>.>.>.>.>.>.>.>.>.>.>.>.>.>.>.>.>.>.>.>.>.V V V V V V V V V V V >.>.>.>.>.>.>.>.>.>.",
">.>.>.>.>.>.>.>.>.>.>.>.>.>.>.>.>.>.>.>.>.>.>.>.>.>.>.>.>.>.>.>.>.>.>.>.>.>.>.>.>.>.V V V V V V V V V V V V V >.>.>.>.>.>.>.>.>.",
">.>.>.>.>.>.>.>.>.>.>.>.>.>.>.>.>.>.>.>.>.>.>.>.>.>.>.>.>.>.>.>.>.>.>.>.>.>.>.>.>.V V V V V V V V V V V V V V V >.>.>.>.>.>.>.>.",
">.>.>.>.>.>.>.>.>.>.>.>.>.>.>.>.>.>.>.>.>.>.>.>.>.>.>.>.>.>.>.>.>.>.>.>.>.>.>.>.>.V V V V V V V V V V V V V V V >.>.>.>.>.>.>.>.",
">.>.>.>.>.>.>.>.>.>.>.>.>.>.>.>.>.>.>.>.>.>.>.>.>.>.>.>.>.>.>.>.>.>.>.>.>.>.>.>.>.V V V V V V V V V V V V V V V >.>.>.>.>.>.>.>.",
">.>.>.>.>.>.>.>.>.>.>.>.>.>.>.>.>.>.>.>.>.>.>.>.>.>.>.>.>.>.>.>.>.>.>.>.>.>.>.>.>.V V V V V V V V V V V V V V V >.>.>.>.>.>.>.>.",
">.>.>.>.>.>.>.>.>.>.>.>.>.>.>.>.>.>.>.>.>.>.>.>.>.>.>.>.>.>.>.>.>.>.>.>.>.>.>.>.>.V V V V V V V V V V V V V V V >.>.>.>.>.>.>.>.",
">.>.>.>.>.>.>.>.>.>.>.>.>.>.>.>.>.>.>.>.>.>.>.>.>.>.>.>.>.>.>.>.>.>.>.>.>.>.>.>.>.V V V V V V V V V V V V V V V >.>.>.>.>.>.>.>.",
">.>.>.>.>.>.>.>.>.>.>.>.>.>.>.>.>.>.>.>.>.>.>.>.>.>.>.>.>.>.>.>.>.>.>.>.>.>.>.>.>.V V V V V V V V V V V V V V V >.>.>.>.>.>.>.>.",
">.>.>.>.>.>.>.>.>.>.>.>.>.>.>.>.>.>.>.>.>.>.>.>.>.>.>.>.>.>.>.>.>.>.>.>.>.>.>.>.>.V V V V V V V V V V V V V V >.>.>.>.>.>.>.>.>.",
">.>.>.>.>.>.>.>.>.>.>.>.>.>.>.>.>.>.>.>.>.>.>.>.>.>.>.>.>.>.>.>.>.>.>.>.>.>.>.>.>.>.V V V V V V V V V V V V V >.>.>.>.>.>.>.>.>.",
">.>.>.>.>.>.>.>.>.>.>.>.>.>.>.>.>.>.>.>.>.>.>.>.>.>.>.>.>.>.>.>.>.>.>.>.>.>.>.>.>.>.>.V V V V V V V V V V V >.>.>.>.>.>.>.>.>.>.",
">.>.>.>.>.>.>.>.>.>.>.>.>.>.>.>.>.>.>.>.>.>.>.>.>.>.>.>.>.>.>.>.>.>.>.>.>.>.>.>.>.>.>.>.V V V V V V V V V >.>.>.>.>.>.>.>.>.>.>.",
">.>.>.>.>.>.>.>.>.>.>.>.>.>.>.>.>.>.>.>.>.>.>.>.>.>.>.>.>.>.>.>.>.>.>.>.>.>.>.>.>.>.>.>.V V V V V V >.>.>.>.>.>.>.>.>.>.>.>.>.>.",
">.>.>.>.>.>.>.>.>.>.>.>.>.>.>.>.>.>.>.>.>.>.>.>.>.>.>.>.>.>.>.>.>.>.>.>.>.>.>.>.>.>.>.>.V V >.>.>.>.>.>.>.>.>.>.>.>.>.>.>.>.>.>.",
">.>.>.>.>.>.>.>.>.>.>.>.>.>.>.>.>.>.>.>.>.>.>.>.>.>.>.>.>.>.>.>.>.>.>.>.>.>.>.>.>.>.>.V V V >.>.>.>.>.>.>.>.>.>.>.>.>.>.>.>.>.>.",
">.>.>.>.>.>.>.>.>.>.>.>.>.>.>.>.>.>.>.>.>.>.>.>.>.>.>.>.>.>.>.>.>.>.>.>.>.>.>.>.>.>.>.V V >.>.>.>.>.>.>.>.>.>.>.>.>.>.>.>.>.>.>.",
">.>.>.>.>.>.>.>.>.>.>.>.>.>.>.>.>.>.>.>.>.>.>.>.>.>.>.>.>.>.>.>.>.>.>.>.>.>.>.>.>.>.V V V >.>.>.>.>.>.>.>.>.>.>.>.>.>.>.>.>.>.>.",
">.>.>.>.>.>.>.>.>.>.>.>.>.>.>.>.>.>.>.>.>.>.>.>.>.>.>.>.>.>.>.>.>.V V V V V V N V V V V V >.>.>.>.>.>.>.>.>.>.>.>.>.>.>.>.>.>.>.",
">.>.>.>.>.>.>.>.>.>.>.>.>.>.>.>.>.>.>.>.>.>.>.>.>.>.>.>.>.>.>.V V V V V V p 9 l V V V V V >.>.>.>.>.>.>.>.>.>.>.>.>.>.>.>.>.>.>.",
">.>.>.>.>.>.>.>.>.>.>.>.>.>.>.>.>.>.>.>.>.>.>.>.>.>.>.>.>.>.V V V V V V 8       w V V V V V V >.>.>.>.>.>.>.>.>.>.>.>.>.>.>.>.>.",
">.>.>.>.>.>.>.>.>.>.>.>.>.>.>.>.>.>.>.>.>.>.>.>.>.>.>.>.V V V V V V V ,           6 V V V V V V >.>.>.>.>.>.>.>.>.>.>.>.>.>.>.>.",
">.>.>.>.>.>.>.>.>.>.>.>.>.>.>.>.>.>.>.>.>.>.>.>.>.>.>.V V V V V V m -               , N V V V V V >.>.>.>.>.>.>.>.>.>.>.>.>.>.>.",
">.>.>.>.>.>.>.>.>.>.>.>.>.>.>.>.>.>.>.>.>.>.>.>.>.>.>.V V V V V n %                   * n V V V V V >.>.>.>.>.>.>.>.>.>.>.>.>.>.",
">.>.>.>.>.>.>.>.>.>.>.>.>.>.>.>.>.>.>.>.>.>.>.>.>.>.V V V V V c $                       $ c V V V V >.>.>.>.>.>.>.>.>.>.>.>.>.>.",
">.>.>.>.>.>.>.>.>.>.>.>.>.>.>.>.>.>.>.>.>.>.>.>.>.>.V V V V s +           4 c 4           + f V V V V >.>.>.>.>.>.>.>.>.>.>.>.>.",
">.>.>.>.>.>.>.>.>.>.>.>.>.>.>.>.>.>.>.>.>.>.>.>.>.V V V V p             w V V V q             y V V V >.>.>.>.>.>.>.>.>.>.>.>.>.",
">.>.>.>.>.>.>.>.>.>.>.>.>.>.>.>.>.>.>.>.>.>.>.>.>.V V V t             d V V V V V p 2 > ; ; , , l V V >.>.>.>.>.>.>.>.>.>.>.>.>.",
">.>.>.>.>.>.>.V V V V V V V V >.>.>.>.>.>.>.>.>.>.V V 9           + h V V V V V V V V V V V V V V V V V >.>.>.>.>.>.>.>.>.>.>.>.",
">.>.>.>.>.>.V V V V V V V V V V >.>.>.>.>.>.>.>.V V 4           + l V V V 9 ; > ; ; * ; ; * - - * % % u >.>.>.>.>.>.>.>.>.>.>.>.",
">.>.>.>.>.V V V V V V V V V V V V >.>.>.>.>.>.>.V y             c V V V V %                           8 >.>.>.>.>.>.>.>.>.>.>.>.",
">.>.>.>.V V V V V V V V V V V V V V >.>.>.>.>.>.V p             f V V V V ;                   + + + + w >.>.>.>.>.>.>.>.>.>.>.>.",
">.>.>.>.V V V V V V V V V V V V V V >.>.>.>.V V V V n m m m m m N V V V V V V V V V V V V V V V V V V V >.>.>.>.>.>.>.>.>.>.>.>.",
">.>.>.V V V V V V V V V V V V V V V V V V V V V V V V ! _ _ ` ] ] ( S V V V V V V V G ] [ [ [ [ [ ~ V V >.>.>.>.>.>.>.>.>.>.>.>.",
">.>.>.V V V V V V V V V V V V V V V V V V V V V V V V J X.:.:.:.:.:. .J V V V V V K o.:.:.:.:.:.} D V V >.>.>.>.>.>.>.>.>.>.>.>.",
">.>.>.V V V V V V V V V V V V V V V V >.>.>.>.>.>.V V V S { :.:.:.:.:.+.I V V V U %.:.:.:.:.:.` V V V >.>.>.>.>.>.>.>.>.>.>.>.>.",
">.>.>.V V V V V V V V V V V V V V V V >.>.>.>.>.>.V V V V Z _ :.:.:.:.:.*.R V E *.:.:.:.:.:.^ V V V V >.>.>.>.>.>.>.>.>.>.>.>.>.",
">.>.>.V V V V V V V V V V V V V V V >.>.>.>.>.>.>.>.V V V V V ! :.:.:.:.:.:.+.:.:.:.:.:.:.Q V V V V V >.>.>.>.>.>.>.>.>.>.>.>.>.",
">.>.>.>.V V V V V V V V V V V V V V >.>.>.>.>.>.>.>.V V V V V V E -.:.:.:.:.:.:.:.:.:.-.R V V V V V >.>.>.>.>.>.>.>.>.>.>.>.>.>.",
">.>.>.>.V V V V V V V V V V V V V >.>.>.>.>.>.>.>.>.>.V V V V V V T %.:.:.:.:.:.:.:.&.T V V V V V V >.>.>.>.>.>.>.>.>.>.>.>.>.>.",
">.>.>.>.>.V V V V V V V V V V V V >.>.>.>.>.>.>.>.>.>.>.V V V V V V L O.:.:.:.:.:.+.P V V V V V V >.>.>.>.>.>.>.>.>.>.>.>.>.>.>.",
">.>.>.>.>.>.V V V V V V V V V V >.>.>.>.>.>.>.>.>.>.>.>.V V V V V V V F | :.:.:.X.J V V V V V V >.>.>.>.>.>.>.>.>.>.>.>.>.>.>.>.",
">.>.>.>.>.>.>.>.V V V V V V >.>.>.>.>.>.>.>.>.>.>.>.>.>.>.>.V V V V V V A / +.` D V V V V V V V >.>.>.>.>.>.>.>.>.>.>.>.>.>.>.>.",
">.>.>.>.>.>.>.>.>.>.>.>.>.>.>.>.>.>.>.>.>.>.>.>.>.>.>.>.>.>.>.V V V V V V V V V V V V V V >.V V V >.>.>.>.>.>.>.>.>.>.>.>.>.>.>.",
">.>.>.>.>.>.>.>.>.>.>.>.>.>.>.>.>.>.>.>.>.>.>.>.>.>.>.>.>.>.>.>.>.V V V V V V V V V V >.>.>.>.V V V >.>.>.>.>.>.>.>.>.>.>.>.>.>.",
">.>.>.>.>.>.>.>.>.>.>.>.>.>.>.>.>.>.>.>.>.>.>.>.>.>.>.>.>.>.>.>.>.>.>.>.>.>.>.>.>.>.>.>.>.>.>.>.V V V >.>.V V V V >.>.>.>.>.>.>.",
">.>.>.>.>.>.>.>.>.>.>.>.>.>.>.>.>.>.>.>.>.>.>.>.>.>.>.>.>.>.>.>.>.>.>.>.>.>.>.>.>.>.>.>.>.>.>.>.V V V V V V V V V V V >.>.>.>.>.",
">.>.>.>.>.>.>.>.>.>.>.>.>.>.>.>.>.>.>.>.>.>.>.>.>.>.>.>.>.>.>.>.>.>.>.>.>.>.>.>.>.>.>.>.>.>.>.>.>.V V V V V V V V V V V V >.>.>.",
">.>.>.>.>.>.>.>.>.>.>.>.>.>.>.>.>.>.>.>.>.>.>.>.>.>.>.>.>.>.>.>.>.>.>.>.>.>.>.>.>.>.>.>.>.>.>.>.>.V V V V V V V V V V V V V >.>.",
">.>.>.>.>.>.>.>.>.>.>.>.>.>.>.>.>.>.>.>.>.>.>.>.>.>.>.>.>.>.>.>.>.>.>.>.>.>.>.>.>.>.>.>.>.>.>.>.V V V V V V V V V V V V V V >.>.",
">.>.>.>.>.>.>.>.>.>.>.>.>.>.>.>.>.>.>.>.>.>.>.>.>.>.>.>.>.>.>.>.>.>.>.>.>.>.>.>.>.>.>.>.>.>.>.>.V V V V V V V V V V V V V V V >.",
">.>.>.>.>.>.>.>.>.>.>.>.>.>.>.>.>.>.>.>.>.>.>.>.>.>.>.>.>.>.>.>.>.>.>.>.>.>.>.>.>.>.>.>.>.>.>.>.V V V V V V V V V V V V V V V >.",
">.>.>.>.>.>.>.>.>.>.>.>.>.>.>.>.>.>.>.>.>.>.>.>.>.>.>.>.>.>.>.>.>.>.>.>.>.>.>.>.>.>.>.>.>.>.>.V V V V V V V V V V V V V V V V >.",
">.>.>.>.>.>.>.>.>.>.>.>.>.>.>.>.>.>.>.>.>.>.>.>.>.>.>.>.>.>.>.>.>.>.>.>.>.>.>.>.>.>.>.>.>.>.>.V V V V V V V V V V V V V V V V >.",
">.>.>.>.>.>.>.>.>.>.>.>.>.>.>.>.>.>.>.>.>.>.>.>.>.>.>.>.>.>.>.>.>.>.>.>.>.>.>.>.>.>.>.>.>.>.>.V V V V V V V V V V V V V V V V >.",
">.>.>.>.>.>.>.>.>.>.>.>.>.>.>.>.>.>.>.>.>.>.>.>.>.>.>.>.>.>.>.>.>.>.>.>.>.>.>.>.>.>.>.>.>.>.>.>.V V V V V V V V V V V V V V V >.",
">.>.>.>.>.>.>.>.>.>.>.>.>.>.>.>.>.>.>.>.>.>.>.>.>.>.>.>.>.>.>.>.>.>.>.>.>.>.>.>.>.>.>.>.>.>.>.>.V V V V V V V V V V V V V V >.>.",
">.>.>.>.>.>.>.>.>.>.>.>.>.>.>.>.>.>.>.>.>.>.>.>.>.>.>.>.>.>.>.>.>.>.>.>.>.>.>.>.>.>.>.>.>.>.>.>.>.V V V V V V V V V V V V V >.>.",
">.>.>.>.>.>.>.>.>.>.>.>.>.>.>.>.>.>.>.>.>.>.>.>.>.>.>.>.>.>.>.>.>.>.>.>.>.>.>.>.>.>.>.>.>.>.>.>.>.V V V V V V V V V V V V >.>.>.",
">.>.>.>.>.>.>.>.>.>.>.>.>.>.>.>.>.>.>.>.>.>.>.>.>.>.>.>.>.>.>.>.>.>.>.>.>.>.>.>.>.>.>.>.>.>.>.>.>.>.>.V V V V V V V V V >.>.>.>.",
">.>.>.>.>.>.>.>.>.>.>.>.>.>.>.>.>.>.>.>.>.>.>.>.>.>.>.>.>.>.>.>.>.>.>.>.>.>.>.>.>.>.>.>.>.>.>.>.>.>.>.>.V V V V V V >.>.>.>.>.>.",
">.>.>.>.>.>.>.>.>.>.>.>.>.>.>.>.>.>.>.>.>.>.>.>.>.>.>.>.>.>.>.>.>.>.>.>.>.>.>.>.>.>.>.>.>.>.>.>.>.>.>.>.>.>.>.>.>.>.>.>.>.>.>.>."
};
