/* XPM */
static char *Free_Converter_com_bitcoin32_47074352[] = {
/* columns rows colors chars-per-pixel */
"32 32 56 1 ",
"  c #395478",
". c #39567A",
"X c #3A5A7D",
"o c #3A5C7F",
"O c #3A6082",
"+ c #3B6284",
"@ c #3B6688",
"# c #3B6889",
"$ c #3C698A",
"% c #3C6D8D",
"& c #3C7090",
"* c #3D7A98",
"= c #3E84A1",
"- c #3F86A2",
"; c #3F87A3",
": c #3F88A5",
"> c #3F8CA8",
", c #408FAA",
"< c #4091AC",
"1 c #4093AE",
"2 c #4197B1",
"3 c #4197B2",
"4 c #4198B2",
"5 c #419CB6",
"6 c #429EB7",
"7 c #42A0B9",
"8 c #42A1BA",
"9 c #46A3BB",
"0 c #47A4BB",
"q c #4FA7BC",
"w c #52A9BD",
"e c #5DAEBF",
"r c #62ADBD",
"t c #6EB6C3",
"y c #70B7C3",
"u c #76BAC4",
"i c #7FBAC2",
"p c #8BC2C6",
"a c #8FC2C5",
"s c #88C3C8",
"d c #90C3C5",
"f c #95C7C8",
"g c #91C8CA",
"h c #94C9CA",
"j c #9FCECC",
"k c #B4D9D0",
"l c #B8DAD1",
"z c #E3EFD9",
"x c #F2F7DC",
"c c #F3F7DD",
"v c #F4F8DD",
"b c #FBFBDE",
"n c #FCFCDE",
"m c #FEFCDF",
"M c #FFFDDF",
"N c None",
/* pixels */
"NNNNNNNNNNNNNNNNNNNNNNNNNNNNNNNN",
"NNNNNNNNNNNNNNNNNNNNNNNNNNNNNNNN",
"NNNNNNNNNNNNNNNNNNNNNNNNNNNNNNNN",
"NNNNNNNNNNNNNNNNNNNNN8888NNNNNNN",
"NNNNNNNNNNNNNNNNNNNN888888NNNNNN",
"NNNNNNNNNNNNNNNNNNN8888888NNNNNN",
"NNNNNNNNNNNNNNNNNNN8888888NNNNNN",
"NNNNNNNNNNNNNNNNNNNN888888NNNNNN",
"NNNNNNNNNNNNNNNNNNNN88888NNNNNNN",
"NNNNNNNNNNNNNNNNNNNNN8NNNNNNNNNN",
"NNNNNNNNNNNNNNNNNNNN8NNNNNNNNNNN",
"NNNNNNNNNNNNNNNN88488NNNNNNNNNNN",
"NNNNNNNNNNNNNN885@.*88NNNNNNNNNN",
"NNNNNNNNNNNNN882O   %68NNNNNNNNN",
"NNNNNNNNNNNNN8,X.@;o +48NNNNNNNN",
"NNNNN888NNNN8-..%621-->4NNNNNNNN",
"NNNN88888NNN, .$81. .   NNNNNNNN",
"NNN8888888888rpft855iadwNNNNNNNN",
"NNN8888888NN80kMng0lMbs8NNNNNNNN",
"NNN8888888NNN88hnMvMxy88NNNNNNNN",
"NNNN88888NNNNN88uvMze88NNNNNNNNN",
"NNNNN88NNNNNNNN88ejq888NNNNNNNNN",
"NNNNNNNNNNNNNNNNN88NNN88NNNNNNNN",
"NNNNNNNNNNNNNNNNNNNNNNN88888NNNN",
"NNNNNNNNNNNNNNNNNNNNNN8888888NNN",
"NNNNNNNNNNNNNNNNNNNNNN8888888NNN",
"NNNNNNNNNNNNNNNNNNNNNN8888888NNN",
"NNNNNNNNNNNNNNNNNNNNNNN88888NNNN",
"NNNNNNNNNNNNNNNNNNNNNNNN888NNNNN",
"NNNNNNNNNNNNNNNNNNNNNNNNNNNNNNNN",
"NNNNNNNNNNNNNNNNNNNNNNNNNNNNNNNN",
"NNNNNNNNNNNNNNNNNNNNNNNNNNNNNNNN"
};
