/* XPM */
static char *Free_Converter_com_bitcoin16_53214203[] = {
/* columns rows colors chars-per-pixel */
"16 16 30 1 ",
"  c #3A597C",
". c #3A5C7F",
"X c #3B6687",
"o c #3C6C8D",
"O c #3C7393",
"+ c #3D7493",
"@ c #3D7695",
"# c #3D7998",
"$ c #3D7A99",
"% c #3E819F",
"& c #3E83A0",
"* c #4092AD",
"= c #4093AE",
"- c #4198B2",
"; c #479BB3",
": c #42A1BA",
"> c #49A5BB",
", c #4FA7BC",
"< c #54A4B8",
"1 c #6CB6C2",
"2 c #7DBEC5",
"3 c #7EBEC6",
"4 c #8CBCC1",
"5 c #9DC4C4",
"6 c #ADD5CF",
"7 c #B2D4CD",
"8 c #D3E8D6",
"9 c #E6F1DA",
"0 c #F6F9DD",
"q c None",
/* pixels */
"qqqqqqqqqqqqqqqq",
"qqqqqqqqqq:::qqq",
"qqqqqqqqqq:::qqq",
"qqqqqqqqqq:::qqq",
"qqqqqqqqqq::qqqq",
"qqqqqqqqqq:qqqqq",
"qqqqqqq:%X-qqqqq",
"qqqqqq:$ o.=qqqq",
"qq::qq$ =@OO%qqq",
"q:::::<72;54qqqq",
"q::::q:2098,qqqq",
"qq::qqq:16>:qqqq",
"qqqqqqqqqqq:::qq",
"qqqqqqqqqqq::::q",
"qqqqqqqqqqq::::q",
"qqqqqqqqqqqq::qq"
};
